PathFileType	4	(X/Y/Z)	c:/Users/goper/Files/vsCode/490R/osim_files/A02/A02_Slow_06.trc
DataRate	CameraRate	NumFrames	NumMarkers	Units                	OrigDataRate	OrigDataStartFrame	OrigNumFrames
250.00	250.00	7	36	mm	250.0	1774	2837
                Frame#	Time	Mobility_markerset:LPSIS			Mobility_markerset:LASIS			Mobility_markerset:LTH1			Mobility_markerset:LTH2			Mobility_markerset:LTH3			Mobility_markerset:LTH4			Mobility_markerset:LLFE			Mobility_markerset:LMFE			Mobility_markerset:LSH1			Mobility_markerset:LSH2			Mobility_markerset:LSH3			Mobility_markerset:LSH4			Mobility_markerset:LLMAL			Mobility_markerset:LMMAL			Mobility_markerset:LCAL			Mobility_markerset:LMTP5			Mobility_markerset:LTOE			Mobility_markerset:LMTP1			Mobility_markerset:RPSIS			Mobility_markerset:RASIS			Mobility_markerset:RTH1			Mobility_markerset:RTH2			Mobility_markerset:RTH3			Mobility_markerset:RTH4			Mobility_markerset:RLFE			Mobility_markerset:RMFE			Mobility_markerset:RSH1			Mobility_markerset:RSH2			Mobility_markerset:RSH3			Mobility_markerset:RSH4			Mobility_markerset:RLMAL			Mobility_markerset:RMMAL			Mobility_markerset:RCAL			Mobility_markerset:RMTP1			Mobility_markerset:RTOE			Mobility_markerset:RMTP5		
		X1	Y1	Z1	X2	Y2	Z2	X3	Y3	Z3	X4	Y4	Z4	X5	Y5	Z5	X6	Y6	Z6	X7	Y7	Z7	X8	Y8	Z8	X9	Y9	Z9	X10	Y10	Z10	X11	Y11	Z11	X12	Y12	Z12	X13	Y13	Z13	X14	Y14	Z14	X15	Y15	Z15	X16	Y16	Z16	X17	Y17	Z17	X18	Y18	Z18	X19	Y19	Z19	X20	Y20	Z20	X21	Y21	Z21	X22	Y22	Z22	X23	Y23	Z23	X24	Y24	Z24	X25	Y25	Z25	X26	Y26	Z26	X27	Y27	Z27	X28	Y28	Z28	X29	Y29	Z29	X30	Y30	Z30	X31	Y31	Z31	X32	Y32	Z32	X33	Y33	Z33	X34	Y34	Z34	X35	Y35	Z35	X36	Y36	Z36

1774	7.09200	-1809.84412	957.74908	316.61005	-1950.11987	922.94440	400.74890	-1847.01526	670.52972	435.35300	0.00000	0.00000	0.00000	-1904.78821	675.78119	456.87857	-1904.88867	630.60736	451.54300	-1895.41321	455.21741	421.78958	-1917.67664	419.41644	308.11050	-1796.89001	443.90372	414.20328	-1763.84192	414.03806	418.52991	-1834.16235	397.69751	429.31451	-1796.84363	373.18274	432.80362	-1611.07239	214.81462	395.11813	-1627.12964	207.98772	312.98889	-1582.50647	273.83115	351.84326	-1566.58142	103.38940	394.16092	-1606.08459	66.83314	329.43973	-1578.71777	100.99841	282.82870	-1817.11829	968.20477	215.67384	0.00000	0.00000	0.00000	-1963.55957	619.54993	143.48703	-1976.26758	577.17346	143.93677	-2022.90845	630.54877	140.62106	-2026.93884	587.43683	139.36818	-2008.90759	468.51822	133.67383	-2038.12146	475.53381	264.69000	-2022.63684	283.66260	156.35336	-2033.81165	239.68715	166.27783	-2081.38257	292.06610	148.99799	-2085.01685	245.41476	156.58487	-2056.57666	85.04716	165.31313	-2074.91821	92.49343	252.22379	-2011.63928	65.53721	215.64169	-2200.40161	66.79713	234.05922	-2217.85010	79.91266	197.58662	-2185.56201	61.52409	143.60068
1775	7.09600	-1813.51013	958.36407	316.38330	-1954.06677	923.91614	400.21844	-1853.09863	670.53754	435.61609	0.00000	0.00000	0.00000	-1910.77917	676.47748	456.79630	0.00000	0.00000	0.00000	-1903.72290	455.74585	422.00504	-1925.55994	420.40320	307.67682	-1806.36609	444.03021	414.31491	-1772.63318	414.81192	419.72031	-1843.03149	398.03931	429.52524	-1805.72156	373.77527	433.26456	-1619.40479	215.71233	395.89224	-1633.80823	210.67300	313.50574	-1589.76343	275.39383	354.53488	-1575.27014	104.00604	393.57034	-1613.71521	69.05988	327.37650	-1585.32178	104.09424	281.99786	-1820.97205	968.77209	215.42715	0.00000	0.00000	0.00000	-1966.13428	620.14014	143.36423	-1978.62708	577.64508	143.81450	-2025.65320	630.85272	140.50854	-2029.39575	587.68146	139.26962	-2010.85693	468.85107	133.60924	-2040.01904	475.71973	264.61807	-2024.70642	283.65714	156.87596	-2032.77942	240.82436	165.20663	-2082.40820	292.04187	148.99207	-2085.83740	245.40611	156.51646	-2056.78613	85.04349	165.42459	-2074.92993	92.36598	252.20943	-2011.75671	65.59621	215.71883	-2200.45923	66.38245	234.14961	-2218.02393	79.52350	197.69237	-2185.27808	61.39596	143.56522
1776	7.10000	-1817.29578	958.89398	316.24435	-1957.71887	924.57208	400.03946	-1859.14038	670.54047	435.82355	0.00000	0.00000	0.00000	-1916.75171	677.12347	456.69455	0.00000	0.00000	0.00000	-1912.28406	456.31406	422.01880	-1933.24243	421.36612	307.17566	-1815.17078	444.71652	416.15601	-1781.51685	415.56372	420.92160	-1852.10596	398.45316	429.64603	-1814.69861	374.20770	433.55951	-1627.94824	216.43663	396.97485	-1640.72546	213.20763	313.92889	-1597.13794	276.69800	356.89218	-1584.14966	104.63433	393.07578	-1621.39819	71.11060	325.45273	-1592.02173	106.86543	281.36530	-1824.66638	969.34271	215.22765	0.00000	0.00000	0.00000	-1968.71411	620.64252	143.23686	-1981.05591	578.08295	143.66522	-2028.10901	631.04382	140.42677	-2031.85181	587.94177	139.10861	-2012.74072	469.22980	133.48860	-2041.95923	475.98224	264.56265	-2025.38147	284.02878	156.67369	-2033.88123	241.01463	165.34030	-2083.51855	292.10193	148.95451	-2086.89722	245.43860	156.52266	-2056.97168	85.15860	165.47993	-2074.97852	92.25959	252.13260	-2011.89014	65.67869	215.76375	-2200.57056	66.00933	234.22028	-2218.20410	79.09572	197.76982	-2185.42554	61.16620	143.59317
1777	7.10400	-1820.89661	959.41699	316.04477	-1961.58972	925.44360	399.60986	-1864.98462	670.49567	435.87854	0.00000	0.00000	0.00000	-1922.71899	677.82361	456.55240	0.00000	0.00000	0.00000	-1920.85352	456.99966	421.90485	-1941.08679	422.59991	306.50620	-1824.26953	445.34842	417.17111	-1790.57153	416.24048	422.09210	-1861.20410	398.77094	429.57144	-1823.76123	374.61755	433.80347	-1636.46179	217.16273	397.35208	-1647.80298	215.29401	314.34311	-1604.78223	277.90060	358.91815	-1593.06787	105.30683	392.60144	-1629.36365	73.06577	323.62711	-1598.97119	109.43606	280.78751	-1828.37122	969.93878	215.04401	0.00000	0.00000	0.00000	-1971.29358	621.18237	143.09138	-1983.41516	578.61237	143.59355	-2030.66443	631.29327	140.32845	-2034.22827	588.19769	138.99306	-2014.61218	469.48444	133.46426	-2043.95520	476.24338	264.48486	-2026.39429	284.37976	156.70378	-2036.36768	240.35576	166.23900	-2084.64258	292.10626	148.89078	-2087.69360	245.43115	156.51057	-2057.13037	85.22020	165.54903	-2075.10376	92.22548	252.11966	-2011.98279	65.78970	215.76704	-2200.72583	65.70144	234.25523	-2218.37256	78.79218	197.82481	-2186.10962	60.82000	143.79874
1778	7.10800	-1824.51819	959.95941	315.88785	0.00000	0.00000	0.00000	-1871.03809	670.68597	436.04562	0.00000	0.00000	0.00000	-1928.71130	678.53760	456.35773	-1930.82458	632.99225	450.28943	-1929.56067	457.82269	421.75833	-1947.80457	423.36539	305.80515	-1833.34302	445.78073	418.12128	-1799.77051	416.77423	423.25870	-1870.44275	399.15866	429.38934	-1833.00061	374.93372	433.81314	-1645.01416	217.92963	397.61371	-1655.07202	217.20555	314.63824	-1612.74585	279.15948	360.59610	-1601.99402	106.01994	392.16013	-1637.49463	74.86324	322.17911	-1606.23425	111.65678	280.38812	-1831.99695	970.49438	214.87662	0.00000	0.00000	0.00000	-1973.84705	621.73090	142.94873	-1985.75647	579.10840	143.46730	-2033.27734	631.54633	140.15269	-2036.60645	588.40857	138.89421	-2016.48792	469.89212	133.32051	-2045.73389	476.43365	264.37866	-2027.41992	284.73270	156.60547	-2037.31873	240.65079	166.23210	-2085.68970	292.12668	148.87817	-2089.01392	245.52876	156.87067	-2057.33179	85.22784	165.45392	-2075.36694	92.29297	252.08632	-2012.04260	65.94844	215.76576	-2200.89014	65.43678	234.28365	-2218.53320	78.54789	197.86453	-2186.06274	60.76249	143.82773
1779	7.11200	-1828.12598	960.46118	315.79852	-1969.31824	927.61969	398.50058	-1877.16687	670.62421	435.99603	0.00000	0.00000	0.00000	-1934.68506	679.30518	456.12729	-1937.66235	633.76550	450.65338	-1938.34155	458.53665	421.29504	0.00000	0.00000	0.00000	-1842.65247	446.26657	419.08813	-1809.05640	417.20905	424.39987	-1880.05859	399.59396	429.11639	-1842.48303	375.05127	433.72003	-1653.54663	218.86327	397.81332	-1662.73364	218.95100	314.95493	-1620.50269	280.18149	361.87939	-1610.89709	106.84187	391.85980	-1645.93701	76.43324	321.11179	-1613.94202	113.54597	280.18616	-1835.49133	971.14954	214.69975	0.00000	0.00000	0.00000	-1976.33752	622.25452	142.79608	-1988.11206	579.57611	143.31255	-2035.90405	631.79083	139.94669	-2039.03979	588.71143	138.78830	-2018.44116	470.24237	133.23935	-2047.71045	476.72397	264.27075	-2028.53638	285.02817	156.57971	-2038.11682	240.94667	166.17114	-2086.89551	292.19827	148.84908	-2089.92871	245.57597	156.80777	-2057.40063	85.37143	165.46878	-2075.55298	92.41592	252.01163	-2012.07861	66.18707	215.71176	-2201.05908	65.22749	234.26306	-2218.68677	78.33289	197.88956	-2186.23096	60.64082	143.88718
1780	7.11600	-1831.66711	961.04675	315.70459	-1972.82043	928.12634	398.37994	-1883.16003	670.88599	436.09958	0.00000	0.00000	0.00000	-1940.67249	680.12469	455.86047	-1943.78906	634.72797	450.08951	-1946.74500	459.59741	421.10101	0.00000	0.00000	0.00000	-1851.73962	447.36389	420.45193	-1818.79333	417.36508	425.72260	-1889.25781	399.65363	428.46924	-1851.89832	375.21826	433.65622	-1662.05396	219.81076	397.97614	-1670.46948	220.48004	314.95688	-1628.62610	281.23877	362.85428	-1619.55798	107.70661	391.72205	-1654.04492	77.92941	320.98575	-1621.99072	115.12139	280.06042	-1839.23999	971.65161	214.79732	0.00000	0.00000	0.00000	-1978.87976	622.80109	142.65480	-1990.46216	580.07983	143.16158	-2038.57227	632.11218	139.80101	-2041.38806	588.93829	138.57513	-2020.31885	470.56622	133.10875	-2049.50464	476.99371	264.11267	-2029.56677	285.33795	156.54579	-2037.32300	242.18832	165.14696	-2087.89648	292.29434	148.77336	-2090.74048	245.61533	156.73676	-2057.51465	85.52164	165.46913	-2075.80835	92.53143	251.97557	-2012.16113	66.37479	215.67197	-2201.19092	65.01925	234.27582	-2218.85205	78.05341	197.86966	-2185.94165	60.58144	143.81586
